M48
; DRILL file {KiCad 5.1.9-73d0e3b20d~88~ubuntu18.04.1} date Tue Apr 20 14:55:22 2021
; FORMAT={-:-/ absolute / inch / decimal}
; #@! TF.CreationDate,2021-04-20T14:55:22-03:00
; #@! TF.GenerationSoftware,Kicad,Pcbnew,5.1.9-73d0e3b20d~88~ubuntu18.04.1
; #@! TF.FileFunction,Plated,1,2,PTH
FMAT,2
INCH
T1C0.0236
T2C0.0276
T3C0.0295
T4C0.0315
T5C0.0354
T6C0.0394
T7C0.0400
T8C0.0512
%
G90
G05
T1
X4.94Y-3.43
X4.94Y-4.4337
T2
X3.2176Y-4.1408
X3.2176Y-4.4408
X3.4699Y-4.1434
X3.4699Y-4.4434
X3.7031Y-3.5761
X3.7031Y-3.8761
T3
X3.1596Y-3.8005
X3.2092Y-3.8505
X3.2596Y-3.8005
X3.4223Y-3.8014
X3.4719Y-3.8514
X3.5223Y-3.8014
T4
X3.9213Y-3.7165
X3.9213Y-4.1165
T5
X3.7008Y-4.0339
X3.7008Y-4.1339
T6
X2.4827Y-5.4882
X2.5669Y-2.9449
X2.5827Y-5.4882
X2.6669Y-2.9449
X2.7669Y-2.9449
X2.8449Y-5.4882
X2.9449Y-5.4882
X3.1575Y-2.9449
X3.2575Y-2.9449
X3.2813Y-3.2174
X3.2813Y-3.5166
X3.3575Y-2.9449
X3.4575Y-2.9449
X3.8976Y-2.9449
X3.9976Y-2.9449
X4.0976Y-2.9449
X4.1351Y-3.7048
X4.1351Y-4.1773
X4.9055Y-2.9449
X5.0055Y-2.9449
X5.063Y-3.4173
X5.063Y-3.5173
X5.063Y-3.6173
X5.063Y-3.7173
X5.063Y-3.8173
X5.063Y-3.9173
X5.063Y-4.0173
X5.063Y-4.1173
X5.0709Y-4.4646
X5.0709Y-4.5646
X5.0709Y-4.6646
X5.0709Y-4.7646
X5.0709Y-4.8646
X5.0709Y-4.9646
X5.1055Y-2.9449
X5.1724Y-5.5433
X5.2724Y-5.5433
X5.3724Y-5.5433
X5.4724Y-5.5433
T7
X2.6Y-3.4
X2.6Y-3.5
X2.6Y-3.6
X2.6Y-3.7
X2.6Y-3.8
X2.6Y-3.9
X2.6Y-4.0
X2.6Y-4.1
X2.6Y-4.2
X2.6Y-4.3
X2.6Y-4.4
X2.6Y-4.5
X2.6Y-4.6
X2.6Y-4.7
X2.6Y-4.8
X2.6Y-4.9
X2.6Y-5.0
X2.6Y-5.1
X2.6Y-5.2
X2.6Y-5.3
X2.7Y-3.4
X2.7Y-3.5
X2.7Y-3.6
X2.7Y-3.7
X2.7Y-3.8
X2.7Y-3.9
X2.7Y-4.0
X2.7Y-4.1
X2.7Y-4.2
X2.7Y-4.3
X2.7Y-4.4
X2.7Y-4.5
X2.7Y-4.6
X2.7Y-4.7
X2.7Y-4.8
X2.7Y-4.9
X2.7Y-5.0
X2.7Y-5.1
X2.7Y-5.2
X2.7Y-5.3
X5.4Y-3.4
X5.4Y-3.5
X5.4Y-3.6
X5.4Y-3.7
X5.4Y-3.8
X5.4Y-3.9
X5.4Y-4.0
X5.4Y-4.1
X5.4Y-4.2
X5.4Y-4.3
X5.4Y-4.4
X5.4Y-4.5
X5.4Y-4.6
X5.4Y-4.7
X5.4Y-4.8
X5.4Y-4.9
X5.4Y-5.0
X5.4Y-5.1
X5.4Y-5.2
X5.4Y-5.3
X5.5Y-3.4
X5.5Y-3.5
X5.5Y-3.6
X5.5Y-3.7
X5.5Y-3.8
X5.5Y-3.9
X5.5Y-4.0
X5.5Y-4.1
X5.5Y-4.2
X5.5Y-4.3
X5.5Y-4.4
X5.5Y-4.5
X5.5Y-4.6
X5.5Y-4.7
X5.5Y-4.8
X5.5Y-4.9
X5.5Y-5.0
X5.5Y-5.1
X5.5Y-5.2
X5.5Y-5.3
T8
X4.0583Y-3.9391
X4.2693Y-3.3465
X4.4693Y-3.3465
X4.6154Y-4.1773
X4.6174Y-3.7029
X4.6693Y-3.3465
T0
M30
